<svg width="85" height="25" viewBox="0 0 85 25" fill="none" xmlns="http://www.w3.org/2000/svg">
<path d="M2.54399 24C1.88266 24 1.37066 23.8187 1.00799 23.456C0.645323 23.072 0.463989 22.5493 0.463989 21.888V3.42401C0.463989 2.74134 0.634656 2.22934 0.975989 1.88801C1.33866 1.52534 1.85066 1.34401 2.51199 1.34401C3.17332 1.34401 3.67466 1.52534 4.01599 1.88801C4.37866 2.22934 4.55999 2.74134 4.55999 3.42401V20.512H13.84C14.416 20.512 14.8533 20.6613 15.152 20.96C15.472 21.2587 15.632 21.6853 15.632 22.24C15.632 22.7947 15.472 23.232 15.152 23.552C14.8533 23.8507 14.416 24 13.84 24H2.54399Z" fill="#018762"/>
<path d="M23.2007 24.32C22.0701 24.32 21.0567 24.1067 20.1607 23.68C19.2861 23.232 18.5927 22.6347 18.0807 21.888C17.5901 21.1413 17.3447 20.2987 17.3447 19.36C17.3447 18.208 17.6434 17.3013 18.2407 16.64C18.8381 15.9573 19.8087 15.4667 21.1527 15.168C22.4967 14.8693 24.2994 14.72 26.5607 14.72H28.1607V17.024H26.5927C25.2701 17.024 24.2141 17.088 23.4247 17.216C22.6354 17.344 22.0701 17.568 21.7287 17.888C21.4087 18.1867 21.2487 18.6133 21.2487 19.168C21.2487 19.872 21.4941 20.448 21.9847 20.896C22.4754 21.344 23.1581 21.568 24.0327 21.568C24.7367 21.568 25.3554 21.408 25.8887 21.088C26.4434 20.7467 26.8807 20.288 27.2007 19.712C27.5207 19.136 27.6807 18.4747 27.6807 17.728V14.048C27.6807 12.9813 27.4461 12.2133 26.9767 11.744C26.5074 11.2747 25.7181 11.04 24.6087 11.04C23.9901 11.04 23.3181 11.1147 22.5927 11.264C21.8887 11.4133 21.1421 11.6693 20.3527 12.032C19.9474 12.224 19.5847 12.2773 19.2647 12.192C18.9661 12.1067 18.7314 11.936 18.5607 11.68C18.3901 11.4027 18.3047 11.104 18.3047 10.784C18.3047 10.464 18.3901 10.1547 18.5607 9.85601C18.7314 9.53601 19.0194 9.30134 19.4247 9.15201C20.4061 8.74668 21.3447 8.45868 22.2407 8.28801C23.1581 8.11734 23.9901 8.03201 24.7367 8.03201C26.2727 8.03201 27.5314 8.26668 28.5127 8.73601C29.5154 9.20534 30.2621 9.92001 30.7527 10.88C31.2434 11.8187 31.4887 13.0347 31.4887 14.528V22.208C31.4887 22.8693 31.3287 23.3813 31.0087 23.744C30.6887 24.0853 30.2301 24.256 29.6327 24.256C29.0354 24.256 28.5661 24.0853 28.2247 23.744C27.9047 23.3813 27.7447 22.8693 27.7447 22.208V20.672H28.0007C27.8514 21.4187 27.5527 22.0693 27.1047 22.624C26.6781 23.1573 26.1341 23.5733 25.4727 23.872C24.8114 24.1707 24.0541 24.32 23.2007 24.32Z" fill="#018762"/>
<path d="M42.7807 24.32C41.1381 24.32 39.7087 23.9893 38.4927 23.328C37.2767 22.6453 36.3381 21.6853 35.6767 20.448C35.0154 19.2107 34.6847 17.76 34.6847 16.096C34.6847 14.8373 34.8661 13.7173 35.2287 12.736C35.6127 11.7333 36.1567 10.8907 36.8607 10.208C37.5647 9.50401 38.4181 8.97068 39.4207 8.60801C40.4234 8.22401 41.5434 8.03201 42.7807 8.03201C43.4847 8.03201 44.2421 8.12801 45.0527 8.32001C45.8847 8.51201 46.6634 8.83201 47.3887 9.28001C47.7301 9.49334 47.9541 9.74934 48.0607 10.048C48.1674 10.3467 48.1887 10.656 48.1247 10.976C48.0607 11.2747 47.9221 11.5413 47.7087 11.776C47.5167 11.9893 47.2714 12.128 46.9727 12.192C46.6741 12.2347 46.3434 12.16 45.9807 11.968C45.5114 11.6907 45.0314 11.488 44.5407 11.36C44.0501 11.2107 43.5807 11.136 43.1327 11.136C42.4287 11.136 41.8101 11.2533 41.2767 11.488C40.7434 11.7013 40.2847 12.0213 39.9007 12.448C39.5381 12.8533 39.2607 13.3653 39.0687 13.984C38.8767 14.6027 38.7807 15.3173 38.7807 16.128C38.7807 17.7067 39.1541 18.9547 39.9007 19.872C40.6687 20.768 41.7461 21.216 43.1327 21.216C43.5807 21.216 44.0394 21.152 44.5087 21.024C44.9994 20.896 45.4901 20.6933 45.9807 20.416C46.3434 20.224 46.6634 20.16 46.9407 20.224C47.2394 20.288 47.4847 20.4373 47.6767 20.672C47.8687 20.8853 47.9861 21.152 48.0287 21.472C48.0714 21.7707 48.0287 22.0693 47.9007 22.368C47.7941 22.6667 47.5807 22.912 47.2607 23.104C46.5567 23.5307 45.8101 23.84 45.0207 24.032C44.2314 24.224 43.4847 24.32 42.7807 24.32Z" fill="#018762"/>
<path d="M52.6905 24.256C52.0292 24.256 51.5172 24.0853 51.1545 23.744C50.8132 23.3813 50.6425 22.8693 50.6425 22.208V10.112C50.6425 9.45068 50.8132 8.94934 51.1545 8.60801C51.4958 8.26668 51.9758 8.09601 52.5945 8.09601C53.2132 8.09601 53.6932 8.26668 54.0345 8.60801C54.3758 8.94934 54.5465 9.45068 54.5465 10.112V12.128H54.2265C54.5252 10.848 55.1118 9.87734 55.9865 9.21601C56.8612 8.55468 58.0238 8.16001 59.4745 8.03201C59.9225 7.98934 60.2745 8.10667 60.5305 8.38401C60.8078 8.64001 60.9678 9.04534 61.0105 9.60001C61.0532 10.1333 60.9252 10.5707 60.6265 10.912C60.3492 11.232 59.9225 11.424 59.3465 11.488L58.6425 11.552C57.3412 11.68 56.3598 12.0853 55.6985 12.768C55.0372 13.4293 54.7065 14.368 54.7065 15.584V22.208C54.7065 22.8693 54.5358 23.3813 54.1945 23.744C53.8532 24.0853 53.3518 24.256 52.6905 24.256Z" fill="#018762"/>
<path d="M70.6357 24.32C68.8651 24.32 67.3397 23.9893 66.0597 23.328C64.7797 22.6667 63.7877 21.728 63.0837 20.512C62.4011 19.296 62.0597 17.856 62.0597 16.192C62.0597 14.5707 62.3904 13.152 63.0517 11.936C63.7344 10.72 64.6624 9.77068 65.8357 9.08801C67.0304 8.38401 68.3851 8.03201 69.8997 8.03201C71.0091 8.03201 72.0011 8.21334 72.8757 8.57601C73.7717 8.93868 74.5291 9.46134 75.1477 10.144C75.7877 10.8267 76.2677 11.6587 76.5877 12.64C76.9291 13.6 77.0997 14.688 77.0997 15.904C77.0997 16.288 76.9611 16.5867 76.6837 16.8C76.4277 16.992 76.0544 17.088 75.5637 17.088H65.2917V14.784H74.2837L73.7717 15.264C73.7717 14.2827 73.6224 13.4613 73.3237 12.8C73.0464 12.1387 72.6304 11.6373 72.0757 11.296C71.5424 10.9333 70.8704 10.752 70.0597 10.752C69.1637 10.752 68.3957 10.9653 67.7557 11.392C67.1371 11.7973 66.6571 12.384 66.3157 13.152C65.9957 13.8987 65.8357 14.7947 65.8357 15.84V16.064C65.8357 17.8133 66.2411 19.1253 67.0517 20C67.8837 20.8533 69.0997 21.28 70.6997 21.28C71.2544 21.28 71.8731 21.216 72.5557 21.088C73.2597 20.9387 73.9211 20.6933 74.5397 20.352C74.9877 20.096 75.3824 19.9893 75.7237 20.032C76.0651 20.0533 76.3317 20.1707 76.5237 20.384C76.7371 20.5973 76.8651 20.864 76.9077 21.184C76.9504 21.4827 76.8864 21.792 76.7157 22.112C76.5664 22.432 76.2997 22.7093 75.9157 22.944C75.1691 23.4133 74.3051 23.7653 73.3237 24C72.3637 24.2133 71.4677 24.32 70.6357 24.32Z" fill="#018762"/>
<path d="M82.2515 24.224C81.6115 24.224 81.1208 24.032 80.7795 23.648C80.4382 23.264 80.2675 22.7307 80.2675 22.048V10.304C80.2675 9.60001 80.4382 9.06668 80.7795 8.70401C81.1208 8.32001 81.6115 8.12801 82.2515 8.12801C82.8915 8.12801 83.3822 8.32001 83.7235 8.70401C84.0862 9.06668 84.2675 9.60001 84.2675 10.304V22.048C84.2675 22.7307 84.0968 23.264 83.7555 23.648C83.4142 24.032 82.9128 24.224 82.2515 24.224ZM82.2515 5.15201C81.5048 5.15201 80.9182 4.97068 80.4915 4.60801C80.0862 4.22401 79.8835 3.70134 79.8835 3.04001C79.8835 2.35734 80.0862 1.83467 80.4915 1.47201C80.9182 1.10934 81.5048 0.928009 82.2515 0.928009C83.0195 0.928009 83.6062 1.10934 84.0115 1.47201C84.4168 1.83467 84.6195 2.35734 84.6195 3.04001C84.6195 3.70134 84.4168 4.22401 84.0115 4.60801C83.6062 4.97068 83.0195 5.15201 82.2515 5.15201Z" fill="#018762"/>
</svg>
